<svg width="340" height="96" viewBox="0 0 340 96" xmlns="http://www.w3.org/2000/svg">
  <defs>
    <linearGradient id="headerLiquid" x1="0%" y1="0%" x2="0%" y2="100%">
      <stop offset="0%" stop-color="#ff3e8e"/>
      <stop offset="100%" stop-color="#22e6c2"/>
    </linearGradient>
    <linearGradient id="headerGlass" x1="0%" y1="0%" x2="100%" y2="0%">
      <stop offset="0%" stop-color="#ffffff" stop-opacity="0.2"/>
      <stop offset="45%" stop-color="#ffffff" stop-opacity="0.03"/>
      <stop offset="100%" stop-color="#000000" stop-opacity="0.14"/>
    </linearGradient>
    <clipPath id="headerBottleClip">
      <path d="
        M 33 21 L 33 15 Q 33 10 40 10 Q 47 10 47 15 L 47 21
        L 45 23 L 45 49 Q 45 55 51 61 Q 57 67 57 75
        L 57 84 Q 57 90 51 90 L 29 90 Q 23 90 23 84
        L 23 75 Q 23 67 29 61 Q 35 55 35 49 L 35 23 Z
      "/>
    </clipPath>
  </defs>

  <!-- bottle mark -->
  <g>
    <path
      d="
        M 33 21 L 33 15 Q 33 10 40 10 Q 47 10 47 15 L 47 21
        L 45 23 L 45 49 Q 45 55 51 61 Q 57 67 57 75
        L 57 84 Q 57 90 51 90 L 29 90 Q 23 90 23 84
        L 23 75 Q 23 67 29 61 Q 35 55 35 49 L 35 23 Z
      "
      fill="#0c0915"
      fill-opacity="0.4"
      stroke="#f3eefa"
      stroke-opacity="0.65"
      stroke-width="2"
      stroke-linejoin="round"
    />
    <rect x="22" y="66" width="36" height="26" fill="url(#headerLiquid)" clip-path="url(#headerBottleClip)" opacity="0.92"/>
    <ellipse cx="40" cy="66" rx="12" ry="2.2" fill="#ffffff" opacity="0.18" clip-path="url(#headerBottleClip)"/>
    <path
      d="
        M 33 21 L 33 15 Q 33 10 40 10 Q 47 10 47 15 L 47 21
        L 45 23 L 45 49 Q 45 55 51 61 Q 57 67 57 75
        L 57 84 Q 57 90 51 90 L 29 90 Q 23 90 23 84
        L 23 75 Q 23 67 29 61 Q 35 55 35 49 L 35 23 Z
      "
      fill="url(#headerGlass)"
    />
    <path d="M 27 68 L 27 85 Q 27 87 29 87 L 30 87 L 30 68 Z" fill="#ffffff" opacity="0.22"/>
    <rect x="34" y="6" width="12" height="9" rx="2" fill="#c9a06b"/>
    <rect x="34" y="6" width="12" height="2.6" rx="1.3" fill="#dab98a"/>
  </g>

  <!-- wordmark -->
  <text x="76" y="63" font-family="Arial, Helvetica, sans-serif" font-weight="800" font-size="42" fill="#f3eefa">
    Spill<tspan fill="#ff3e8e">It</tspan>
  </text>
</svg>
