<svg width="100" height="100" viewBox="0 0 100 100" xmlns="http://www.w3.org/2000/svg">
  <defs>
    <linearGradient id="iconLiquid" x1="0%" y1="0%" x2="0%" y2="100%">
      <stop offset="0%" stop-color="#ff3e8e"/>
      <stop offset="100%" stop-color="#22e6c2"/>
    </linearGradient>
  </defs>
  <g transform="translate(24.33,2.01) scale(0.2139)">
    <path
      d="
        M 103 78 L 103 58 Q 103 44 120 44 Q 137 44 137 58 L 137 78
        L 132 84 L 132 160 Q 132 178 150 196 Q 168 214 168 238
        L 168 398 Q 168 430 146 430 L 94 430 Q 72 430 72 398
        L 72 238 Q 72 214 90 196 Q 108 178 108 160 L 108 84 Z
      "
      fill="url(#iconLiquid)"
      stroke="#0c0915"
      stroke-width="10"
      stroke-linejoin="round"
    />
    <rect x="107" y="28" width="26" height="20" rx="4" fill="#c9a06b" stroke="#0c0915" stroke-width="6"/>
  </g>
</svg>
